<svg xmlns="http://www.w3.org/2000/svg" xmlns:xlink="http://www.w3.org/1999/xlink" xmlns:lucid="lucid" width="1607.14" height="1281"><g transform="translate(-1180.688909401987 -22.479546901011872)" lucid:page-tab-id="m-5o7ONTd-nK"><path d="M1000 0h2000v1500H1000z" fill="#fff"/><path d="M1181.2 342.98v-314a6 6 0 0 1 6-6h34v320z" stroke="#3a414a" fill="#dfe3e8"/><path d="M1181.2 342.98h40v320h-40z" stroke="#3a414a" fill="#ced4db"/><path d="M1181.2 662.98h40v320h-40z" stroke="#3a414a" fill="#979ea8"/><path d="M1221.2 1302.98h-34a6 6 0 0 1-6-6v-314h40z" stroke="#3a414a" fill="#6f7681"/><path d="M1221.2 22.98h1560.13a6 6 0 0 1 6 6v314H1221.2zM1221.2 342.98h1566.13v320H1221.2zM1221.2 662.98h1566.13v320H1221.2zM2787.33 982.98v314a6 6 0 0 1-6 6H1221.2v-320z" stroke="#3a414a" fill="none"/><use xlink:href="#a" transform="matrix(-1.8369701987210297e-16,-1,1,-1.8369701987210297e-16,1181.188909401987,342.9795469010119) translate(136.25553385416669 28.017903645833332)"/><use xlink:href="#b" transform="matrix(-1.8369701987210297e-16,-1,1,-1.8369701987210297e-16,1181.188909401987,662.9795469010119) translate(123.35400390625 28.017903645833332)"/><use xlink:href="#c" transform="matrix(-1.8369701987210297e-16,-1,1,-1.8369701987210297e-16,1181.188909401987,982.9795469010119) translate(107.66227213541669 28.017903645833332)"/><use xlink:href="#d" transform="matrix(-1.8369701987210297e-16,-1,1,-1.8369701987210297e-16,1181.188909401987,1302.9795469010116) translate(139.09619140625 28.017903645833332)"/><path d="M1920 130.98a8 8 0 0 1 8-8h144a8 8 0 0 1 8 8v104a8 8 0 0 1-8 8h-144a8 8 0 0 1-8-8z" stroke="#000" stroke-width="2" fill="#e8e2c8"/><use xlink:href="#e" transform="matrix(1,0,0,1,1932,134.97954690101187) translate(46.34814453125 53.4375)"/><path d="M1440 450.98a8 8 0 0 1 8-8h144a8 8 0 0 1 8 8v104a8 8 0 0 1-8 8h-144a8 8 0 0 1-8-8z" stroke="#000" stroke-width="2" fill="#e8e2c8"/><use xlink:href="#f" transform="matrix(1,0,0,1,1452,454.9795469010119) translate(33.3447265625 53.4375)"/><path d="M1920 450.98a8 8 0 0 1 8-8h144a8 8 0 0 1 8 8v104a8 8 0 0 1-8 8h-144a8 8 0 0 1-8-8z" stroke="#000" stroke-width="2" fill="#e8e2c8"/><use xlink:href="#g" transform="matrix(1,0,0,1,1932,454.9795469010119) translate(34.94873046875 53.4375)"/><path d="M2408.52 450.98a8 8 0 0 1 8-8h144a8 8 0 0 1 8 8v104a8 8 0 0 1-8 8h-144a8 8 0 0 1-8-8z" stroke="#000" stroke-width="2" fill="#e8e2c8"/><use xlink:href="#h" transform="matrix(1,0,0,1,2420.522754856517,454.9795469010119) translate(28.0625 53.4375)"/><path d="M1920 770.98a8 8 0 0 1 8-8h144a8 8 0 0 1 8 8v104a8 8 0 0 1-8 8h-144a8 8 0 0 1-8-8z" stroke="#000" stroke-width="2" fill="#e8e2c8"/><use xlink:href="#i" transform="matrix(1,0,0,1,1932,774.9795469010119) translate(20.2138671875 53.4375)"/><path d="M1468.23 1090.04a13.33 13.33 0 0 1 11.77-7.06h80a13.33 13.33 0 0 1 11.77 7.06l24.46 45.88a15 15 0 0 1 0 14.12l-24.46 45.88a13.33 13.33 0 0 1-11.77 7.06h-80a13.33 13.33 0 0 1-11.77-7.06l-24.46-45.88a15 15 0 0 1 0-14.12z" stroke="#000" stroke-width="2" fill="#82755b"/><use xlink:href="#j" transform="matrix(1,0,0,1,1452,1094.9795469010119) translate(36.997187499999995 29.4375)"/><use xlink:href="#k" transform="matrix(1,0,0,1,1452,1094.9795469010119) translate(8.06298828125 55.572656249999994)"/><use xlink:href="#l" transform="matrix(1,0,0,1,1452,1094.9795469010119) translate(42.30517578125 55.572656249999994)"/><use xlink:href="#m" transform="matrix(1,0,0,1,1452,1094.9795469010119) translate(27.764277343749995 81.70781249999999)"/><use xlink:href="#n" transform="matrix(1,0,0,1,1452,1094.9795469010119) translate(89.99083984375 81.70781249999999)"/><path d="M1920 1090.98a8 8 0 0 1 8-8h144a8 8 0 0 1 8 8v104a8 8 0 0 1-8 8h-144a8 8 0 0 1-8-8z" stroke="#000" stroke-width="2" fill="#e8e2c8"/><use xlink:href="#o" transform="matrix(1,0,0,1,1932,1094.9795469010119) translate(39.32568359375 53.4375)"/><path d="M2408.52 1090.98a8 8 0 0 1 8-8h144a8 8 0 0 1 8 8v104a8 8 0 0 1-8 8h-144a8 8 0 0 1-8-8z" stroke="#000" stroke-width="2" fill="#e8e2c8"/><use xlink:href="#p" transform="matrix(1,0,0,1,2420.522754856517,1094.9795469010119) translate(16.3642578125 53.4375)"/><path d="M1602.5 477.67h-1v-.95h1zm6.05 0h-2.02v-.95h2.02zm6.04 0h-2.03v-.95h2.02zm5.9 0h-1.9v-.95h1.9zm284.02 0h-2v-.95h2zm5.04 0h-1v-.95h1z" stroke="#3a414a" stroke-width=".05" fill="#3a414a"/><path d="M1601.5 477.67h-.5v-.95h.5z" fill="#3a414a"/><path stroke="#3a414a" stroke-width=".05" fill="#3a414a"/><path d="M1918.95 477.2l-18.03 10.4-.48-.82 15.8-9.1h-6.74v-.96h6.73l-15.8-9.12.5-.82z" stroke="#3a414a" stroke-width=".05" fill="#3a414a"/><use xlink:href="#q" transform="matrix(1,0,0,1,1620.5043697364763,466.3033337319375) translate(0 17.4375)"/><use xlink:href="#r" transform="matrix(1,0,0,1,1620.5043697364763,466.3033337319375) translate(81.5888671875 17.4375)"/><use xlink:href="#s" transform="matrix(1,0,0,1,1620.5043697364763,466.3033337319375) translate(122.923828125 17.4375)"/><use xlink:href="#t" transform="matrix(1,0,0,1,1620.5043697364763,466.3033337319375) translate(204.4951171875 17.4375)"/><path d="M1702.55 520.1h-85.17v-.96h85.17zm215.95 0h-101.05v-.96h101.05z" stroke="#3a414a" stroke-width=".05" fill="#3a414a"/><path d="M1919 520.1h-.5v-.96h.5z" fill="#3a414a"/><path stroke="#3a414a" stroke-width=".05" fill="#3a414a"/><path d="M1616.88 524.25l-14.26-4.63 14.26-4.64z" fill="#3a414a"/><path d="M1617.36 524.9l-16.28-5.28 16.28-5.3zm-13.2-5.28l12.25 3.98v-7.96z" stroke="#3a414a" stroke-width=".05" fill="#3a414a"/><use xlink:href="#u" transform="matrix(1,0,0,1,1702.550308968683,508.7298288736781) translate(0 17.4375)"/><use xlink:href="#v" transform="matrix(1,0,0,1,1702.550308968683,508.7298288736781) translate(56.935546875 17.4375)"/><path d="M2407.02 503.45h-1v-.94h1zm-5.02 0h-2v-.94h2zm-6.03 0h-2v-.94h2zm-6.03 0h-2v-.94h2zm-288.27 0h-.38v-.94h.37zm-4.32 0h-1.98v-.94h1.98zm-5.92 0h-1v-.94h1z" stroke="#3a414a" stroke-width=".05" fill="#3a414a"/><path d="M2407.52 503.45h-.5v-.94h.5z" fill="#3a414a"/><path stroke="#3a414a" stroke-width=".05" fill="#3a414a"/><path d="M2099.56 493.4l-15.8 9.1h6.74v.95h-6.73l15.8 9.12-.5.82-18.02-10.42 18.03-10.4z" stroke="#3a414a" stroke-width=".05" fill="#3a414a"/><use xlink:href="#q" transform="matrix(1,0,0,1,2101.6676274282586,492.0898984635119) translate(0 17.4375)"/><use xlink:href="#w" transform="matrix(1,0,0,1,2101.6676274282586,492.0898984635119) translate(81.5888671875 17.4375)"/><use xlink:href="#s" transform="matrix(1,0,0,1,2101.6676274282586,492.0898984635119) translate(138.6123046875 17.4375)"/><use xlink:href="#x" transform="matrix(1,0,0,1,2101.6676274282586,492.0898984635119) translate(220.18359375 17.4375)"/><path d="M2478.47 182.66l1.9.45 1.82.76 1.66 1.03 1.48 1.26 1.28 1.5 1.02 1.66.75 1.8.45 1.9.15 1.94V425.6h-.95V195l-.15-1.82-.42-1.76-.7-1.67-.94-1.54-1.17-1.37-1.37-1.17-1.55-.95-1.67-.68-1.76-.42-1.82-.14h-162.1v-.96h162.14zm-396.97.8v-.96h118v.96z" stroke="#3a414a" stroke-width=".05" fill="#3a414a"/><path d="M2081.5 183.46h-.5v-.96h.5z" fill="#3a414a"/><path stroke="#3a414a" stroke-width=".05" fill="#3a414a"/><path d="M2488.52 440.36l-4.63-14.26h9.26z" fill="#3a414a"/><path d="M2488.52 441.9l-5.3-16.28h10.6zm-3.98-15.33l3.98 12.25 3.98-12.25z" stroke="#3a414a" stroke-width=".05" fill="#3a414a"/><use xlink:href="#u" transform="matrix(1,0,0,1,2199.487998960237,172.08989846351187) translate(0 17.4375)"/><use xlink:href="#v" transform="matrix(1,0,0,1,2199.487998960237,172.08989846351187) translate(56.935546875 17.4375)"/><path d="M2000.47 425.6h-.94V317.7h.94zm0-129.68h-.94v-51.44h.94z" stroke="#3a414a" stroke-width=".05" fill="#3a414a"/><path d="M2000.47 244.5h-.94v-.52h.94z" fill="#3a414a"/><path stroke="#3a414a" stroke-width=".05" fill="#3a414a"/><path d="M2000 440.36l-4.63-14.26h9.27z" fill="#3a414a"/><path d="M2000 441.9l-5.3-16.28h10.6zm-3.98-15.33l3.98 12.25 3.98-12.25z" stroke="#3a414a" stroke-width=".05" fill="#3a414a"/><use xlink:href="#u" transform="matrix(1,0,0,1,1942.55029296875,295.91895703335047) translate(0 17.4375)"/><use xlink:href="#v" transform="matrix(1,0,0,1,1942.55029296875,295.91895703335047) translate(56.935546875 17.4375)"/><path d="M1646.4 183.46h-304.38l-1.82.14-1.76.42-1.67.7-1.54.94-1.38 1.17-1.17 1.38-.95 1.55-.7 1.67-.4 1.76-.16 1.82v615.96l.15 1.82.42 1.76.7 1.67.94 1.55 1.17 1.38 1.38 1.17 1.54.95 1.67.7 1.76.4 1.82.15h560.6v.96h-560.64l-1.93-.16-1.9-.45-1.8-.75-1.68-1.03-1.5-1.27-1.26-1.5-1.02-1.66-.75-1.8-.45-1.9-.15-1.94V194.96l.15-1.93.45-1.9.75-1.8 1.03-1.68 1.28-1.5 1.5-1.26 1.66-1.04 1.8-.75 1.9-.44 1.94-.16h304.42zm272.1 0h-157.2v-.96h157.2z" stroke="#3a414a" stroke-width=".05" fill="#3a414a"/><path d="M1919 183.46h-.5v-.96h.5z" fill="#3a414a"/><path stroke="#3a414a" stroke-width=".05" fill="#3a414a"/><path d="M1917.38 822.98l-14.26 4.63v-9.26z" fill="#3a414a"/><path d="M1918.92 822.98l-16.28 5.3v-10.6zm-15.33 3.98l12.25-3.98-12.26-3.98z" stroke="#3a414a" stroke-width=".05" fill="#3a414a"/><use xlink:href="#u" transform="matrix(1,0,0,1,1646.4053290489364,172.08989846351187) translate(0 17.4375)"/><use xlink:href="#v" transform="matrix(1,0,0,1,1646.4053290489364,172.08989846351187) translate(56.935546875 17.4375)"/><path d="M1984.4 708a8 8 0 0 1 8-8h15.2a8 8 0 0 1 8 8v15.8a8 8 0 0 1-8 8h-15.2a8 8 0 0 1-8-8z" fill="#fff"/><path d="M1990.35 700.3l.8-.2 1.26-.1h2.54m10.12 0h2.53l1.24.1.8.2m5.65 5.63l.2.82.1 1.25v2.63m0 10.53v2.63l-.1 1.24-.2.82m-5.65 5.63l-.8.2-1.26.1h-2.54m-10.12 0h-2.53l-1.24-.1-.8-.2m-5.65-5.64l-.2-.82-.1-1.25v-2.64m0-10.53V708l.1-1.25.2-.82" stroke="#000" stroke-width="2" fill="none"/><use xlink:href="#y" transform="matrix(1,0,0,1,1989.4141552734375,705) translate(4.302734375 18.8125)"/><path d="M2000.47 689.56h-.94v-1h.94zm0-4.97h-.94v-2h.94zm0-5.96h-.94v-2h.94zm0-5.96h-.94v-1.98h.94zm0-5.95h-.94v-2h.94zm0-5.96h-.94v-2h.94zm0-5.96h-.94v-1.97h.94zm0-5.94h-.94v-2h.94zm0-5.96h-.94v-1.98h.94zm0-5.95h-.94v-2h.94zm0-24.5h-.94v-1.32h.94zm0-5.3h-.94v-1.97h.94zm0-5.94h-.94v-1.98h.94zm0-5.95h-.94v-1.98h.94zm0-5.95h-.94v-2h.94zm0-5.96h-.94v-2h.94zm0-5.96h-.94v-1.98h.94zm0-5.95h-.94v-2h.94zm0-5.96h-.94v-1h.94z" stroke="#3a414a" stroke-width=".05" fill="#3a414a"/><path d="M2000.47 564.5h-.94v-.52h.94z" fill="#3a414a"/><path stroke="#3a414a" stroke-width=".05" fill="#3a414a"/><path d="M2010.4 680.92l-10.4 18.03-10.4-18.03.8-.48 9.13 15.8v-6.74h.94v6.73l9.12-15.8z" stroke="#3a414a" stroke-width=".05" fill="#3a414a"/><use xlink:href="#z" transform="matrix(1,0,0,1,1907.046875,612.4563337843992) translate(0 17.4375)"/><use xlink:href="#A" transform="matrix(1,0,0,1,1907.046875,612.4563337843992) translate(29.8212890625 17.4375)"/><use xlink:href="#t" transform="matrix(1,0,0,1,1907.046875,612.4563337843992) translate(111.41015625 17.4375)"/><path d="M2000 733.3v1.06m0 4.28v2.13m0 4.28v2.14m0 4.27v1.07" stroke="#3a414a" fill="none"/><path d="M2000.47 733.3h-.94v-.5h.94z" stroke="#3a414a" stroke-width=".05" fill="#3a414a"/><path d="M2010 743.66l-10 17.32-10-17.32m10 17.32v-8.5" stroke="#3a414a" fill="none"/><path d="M2478.97 716.1l-.5.12-1.93.15h-2.03v-.95h2l1.82-.14.43-.1zm-8.48.27h-4.03v-.95h4.02zm-8.05 0h-4.03v-.95h4.03zm-8.05 0h-4.02v-.95h4.02zm-8.04 0h-4.03v-.95h4.03zm-8.05 0h-4v-.95h4zm-8.03 0h-4.03v-.95h4.03zm-8.05 0h-4.02v-.95h4.02zm-8.04 0h-4.02v-.95h4.02zm-8.05 0h-4.02v-.95h4.03zm-8.04 0h-4.03v-.95h4.02zm-8.06 0h-4.02v-.95h4.02zm-8.04 0h-4.02v-.95h4.02zm-8.05 0h-4.02v-.95h4.03zm-8.04 0h-4v-.95h4zm-8.03 0h-4.03v-.95h4.03zm-8.05 0h-4.02v-.95h4.02zm-8.04 0h-4.03v-.95h4.03zm-8.05 0h-4.02v-.95h4.03zm-8.04 0h-4.03v-.95h4.02zm-8.06 0h-4.02v-.95h4.02zm-8.04 0h-4.02v-.95h4.02zm-8.05 0h-4.02v-.95h4.02zm-8.04 0h-4v-.95h4zm-8.03 0h-4.03v-.95h4.03zm-8.05 0h-4.02v-.95h4.02zm-8.04 0h-4.03v-.95h4.03zm-8.05 0h-4.02v-.95h4.03zm-8.04 0h-4.04v-.95h4.03zm-8.06 0h-4.02v-.95h4.02zm-8.04 0h-4.02v-.95h4.02zm-8.05 0h-4.02v-.95h4.02zm-8.04 0h-4v-.95h4zm-8.04 0h-4.02v-.95h4.02zm-8.04 0H2201v-.95h4.02zm-8.05 0h-4.02v-.95h4.03zm-8.04 0h-4.02v-.95h4.03zm-8.04 0h-4.04v-.95h4.03zm-8.06 0h-4.02v-.95h4.02zm-8.04 0h-4.03v-.95h4.03zm-8.05 0h-4.02v-.95h4.02zm-8.04 0h-4v-.95h4zm-8.04 0h-4.02v-.95h4.02zm-8.04 0h-4.02v-.95h4.02zm-8.05 0h-4.02v-.95h4.02zm-8.04 0h-4.02v-.95h4.03zm-8.04 0h-4.04v-.95h4.03zm-8.06 0h-4.02v-.95h4.02zm-8.04 0h-4.03v-.95h4.03zm-8.05 0h-4.02v-.95h4.02zm-8.04 0h-4.02v-.95h4.03zm-8.04 0h-4.02v-.95h4.02zm-8.04 0h-4.02v-.95h4.02zm-8.05 0h-4.02v-.95h4.02zm-8.04 0h-4.02v-.95h4.03zm-8.05 0h-4.02v-.95h4.03zm-8.04 0h-2v-.95h2zm458.84-5.58l-.26.43-1.28 1.5-1.48 1.26-.44.25-.5-.8.38-.23 1.37-1.18 1.17-1.37.23-.37zm2.12-6.9l-.15 1.95-.12.5-.93-.23.1-.42.15-1.82v-2.04h.95zm0-6.16h-.95v-4.1h.95zm0-8.2h-.95v-4.1h.95zm0-8.2h-.95v-4.1h.95zm0-8.2h-.95v-4.1h.95zm0-8.2h-.95v-4.1h.95zm0-8.2h-.95v-4.1h.95zm0-8.2h-.95v-4.1h.95zm0-8.2h-.95v-4.1h.95zm0-8.2h-.95v-4.1h.95zm0-26.7h-.95v-2h.95zm0-6.1h-.95v-4.1h.95zm0-8.2h-.95v-4.1h.95zm0-8.2h-.95v-4.1h.95zm0-8.2h-.95v-4.1h.95zm0-8.2h-.95v-2.06h.95z" stroke="#3a414a" stroke-width=".05" fill="#3a414a"/><path d="M2489 564.5h-.95v-.52h.95z" fill="#3a414a"/><path stroke="#3a414a" stroke-width=".05" fill="#3a414a"/><path d="M2035.14 706.3l-15.78 9.12h6.73v.95h-6.74l15.78 9.1-.47.84-18.03-10.4 18.03-10.42z" stroke="#3a414a" stroke-width=".05" fill="#3a414a"/><g><use xlink:href="#q" transform="matrix(1,0,0,1,2317.641407200267,605.4457059137018) translate(0 17.4375)"/><use xlink:href="#B" transform="matrix(1,0,0,1,2317.641407200267,605.4457059137018) translate(81.5888671875 17.4375)"/><use xlink:href="#C" transform="matrix(1,0,0,1,2317.641407200267,605.4457059137018) translate(125.6220703125 17.4375)"/><use xlink:href="#D" transform="matrix(1,0,0,1,2317.641407200267,605.4457059137018) translate(181.828125 17.4375)"/><use xlink:href="#t" transform="matrix(1,0,0,1,2317.641407200267,605.4457059137018) translate(267.2666015625 17.4375)"/></g><path d="M1988.02 929.52l1.93.16 1.9.45 1.8.75 1.68 1.03 1.5 1.28 1.26 1.5 1.02 1.66.75 1.8.45 1.9.15 1.94v123.62h-.94V942.02l-.15-1.82-.42-1.76-.7-1.67-.94-1.54-1.17-1.38-1.38-1.17-1.54-.95-1.67-.7-1.76-.4-1.82-.15h-211.64v-.96zm-467.4-9.72l.42 1.76.7 1.67.94 1.54 1.17 1.38 1.38 1.17 1.54.95 1.67.7 1.76.4 1.82.15h129.42v.96h-129.46l-1.93-.16-1.9-.45-1.8-.75-1.68-1.03-1.5-1.28-1.26-1.5-1.02-1.66-.75-1.8-.45-1.9-.15-1.94V564.48h.94v353.5z" stroke="#3a414a" stroke-width=".05" fill="#3a414a"/><path d="M1520.47 564.5h-.94v-.52h.94z" fill="#3a414a"/><path stroke="#3a414a" stroke-width=".05" fill="#3a414a"/><path d="M2000 1080.36l-4.63-14.26h9.27z" fill="#3a414a"/><path d="M2000 1081.9l-5.3-16.28h10.6zm-3.98-15.33l3.98 12.25 3.98-12.25z" stroke="#3a414a" stroke-width=".05" fill="#3a414a"/><g><use xlink:href="#u" transform="matrix(1,0,0,1,1661.4449665720172,919.1103515625) translate(0 17.4375)"/><use xlink:href="#v" transform="matrix(1,0,0,1,1661.4449665720172,919.1103515625) translate(56.935546875 17.4375)"/></g><path d="M2232.28 589.52l1.93.16 1.92.45 1.8.75 1.67 1.03 1.48 1.28 1.28 1.5 1.02 1.66.75 1.8.45 1.9.16 1.94v427.98l.14 1.82.42 1.76.7 1.67.94 1.55 1.17 1.38 1.4 1.17 1.53.95 1.67.7 1.76.4 1.82.16h220.26l1.93.16 1.9.45 1.82.76 1.66 1.03 1.48 1.26 1.28 1.5 1.02 1.65.75 1.82.45 1.9.15 1.94v11.64h-.95V1054l-.15-1.82-.42-1.76-.7-1.67-.94-1.54-1.17-1.37-1.37-1.17-1.55-.95-1.67-.68-1.76-.42-1.82-.14h-220.26l-1.93-.16-1.9-.45-1.8-.75-1.67-1.03-1.5-1.27-1.26-1.5-1.03-1.66-.74-1.8-.46-1.9-.15-1.94V602.02l-.16-1.82-.42-1.76-.7-1.67-.94-1.54-1.17-1.38-1.37-1.17-1.54-.95-1.68-.7-1.76-.4-1.82-.15h-54.34v-.96zm-231.66-9.72l.42 1.76.7 1.67.94 1.54 1.17 1.38 1.38 1.17 1.54.95 1.67.7 1.76.4 1.82.15H2063v.96h-51.02l-1.93-.16-1.9-.45-1.8-.75-1.68-1.03-1.5-1.28-1.26-1.5-1.02-1.66-.75-1.8-.45-1.9-.15-1.94v-13.54h.94v13.5z" stroke="#3a414a" stroke-width=".05" fill="#3a414a"/><path d="M2000.47 564.5h-.94v-.52h.94z" fill="#3a414a"/><path stroke="#3a414a" stroke-width=".05" fill="#3a414a"/><path d="M2488.52 1080.36l-4.63-14.26h9.26z" fill="#3a414a"/><path d="M2488.52 1081.9l-5.3-16.28h10.6zm-3.98-15.33l3.98 12.25 3.98-12.25z" stroke="#3a414a" stroke-width=".05" fill="#3a414a"/><g><use xlink:href="#u" transform="matrix(1,0,0,1,2063.003288438278,579.1103515625) translate(0 17.4375)"/><use xlink:href="#v" transform="matrix(1,0,0,1,2063.003288438278,579.1103515625) translate(56.935546875 17.4375)"/></g><defs><path d="M180 0v-1490h270l367 940c28 72 75 218 110 339 35-117 81-264 110-339l362-940h271V0h-187c2-448-5-837 7-1287-157 497-311 829-483 1287H842C666-458 514-784 354-1284c12 438 5 843 7 1284H180" id="E"/><path d="M471 26C259 26 90-98 90-318c0-256 228-303 435-329 202-27 287-16 287-108 0-139-79-219-234-219-161 0-248 86-283 164l-173-57c86-203 278-265 451-265 150 0 419 46 419 395V0H815v-152h-12C765-73 660 26 471 26zm31-159c199 0 310-134 310-271v-155c-30 35-226 55-295 64-131 17-246 59-246 186 0 116 97 176 231 176" id="F"/><path d="M158 0v-1118h180V0H158zm91-1301c-68 0-125-53-125-119s57-119 125-119c69 0 126 53 126 119s-57 119-126 119" id="G"/><path d="M338-670V0H158v-1118h173l1 207c72-158 192-221 342-221 226 0 378 139 378 422V0H872v-695c0-172-96-275-252-275-161 0-282 109-282 300" id="H"/><g id="a"><use transform="matrix(0.010091145833333332,0,0,0.010091145833333332,0,0)" xlink:href="#E"/><use transform="matrix(0.010091145833333332,0,0,0.010091145833333332,18.668619791666664,0)" xlink:href="#F"/><use transform="matrix(0.010091145833333332,0,0,0.010091145833333332,30.273437499999996,0)" xlink:href="#G"/><use transform="matrix(0.010091145833333332,0,0,0.010091145833333332,35.27864583333333,0)" xlink:href="#H"/></g><path d="M370-1490V0H180v-1490h190" id="I"/><path d="M598-1118v154H368v674c0 100 37 144 132 144 23 0 62-6 92-12L629-6c-37 13-88 20-134 20-193 0-307-107-307-290v-688H20v-154h168v-266h180v266h230" id="J"/><path d="M628 24c-324 0-524-230-524-574 0-343 198-582 503-582 237 0 487 146 487 559v75H286c9 234 145 362 343 362 132 0 231-58 273-172l174 48C1024-91 857 24 628 24zM287-650h624c-17-190-120-322-304-322-192 0-309 151-320 322" id="K"/><path d="M158 0v-1118h174v172h12c41-113 157-188 290-188 26 0 70 2 91 3v181c-11-2-60-10-108-10-161 0-279 109-279 260V0H158" id="L"/><path d="M338-1490V0H158v-1490h180" id="M"/><g id="b"><use transform="matrix(0.010091145833333332,0,0,0.010091145833333332,0,0)" xlink:href="#I"/><use transform="matrix(0.010091145833333332,0,0,0.010091145833333332,5.550130208333333,0)" xlink:href="#H"/><use transform="matrix(0.010091145833333332,0,0,0.010091145833333332,17.760416666666664,0)" xlink:href="#J"/><use transform="matrix(0.010091145833333332,0,0,0.010091145833333332,24.319661458333332,0)" xlink:href="#K"/><use transform="matrix(0.010091145833333332,0,0,0.010091145833333332,36.36848958333333,0)" xlink:href="#L"/><use transform="matrix(0.010091145833333332,0,0,0.010091145833333332,44.47167968749999,0)" xlink:href="#H"/><use transform="matrix(0.010091145833333332,0,0,0.010091145833333332,56.68196614583333,0)" xlink:href="#F"/><use transform="matrix(0.010091145833333332,0,0,0.010091145833333332,68.28678385416666,0)" xlink:href="#M"/></g><path d="M180 0v-1490h510c348 0 508 194 508 460 0 198-88 351-276 417L1256 0h-220L726-579c-117 2-238 0-356 1V0H180zm190-747h312c235 0 327-108 327-283 0-177-92-293-329-293H370v576" id="N"/><path d="M158 418v-1536h174v179h20c37-59 106-193 324-193 279 0 474 222 474 576 0 356-194 580-473 580-213 0-288-135-325-197h-14v591H158zm492-555c209 0 317-186 317-421 0-232-105-413-317-413-206 0-314 166-314 413 0 249 111 421 314 421" id="O"/><path d="M613 24c-304 0-509-231-509-576 0-350 205-580 509-580 305 0 511 230 511 580 0 345-206 576-511 576zm0-161c226 0 329-195 329-415 0-222-103-419-329-419-223 0-326 196-326 419 0 220 103 415 326 415" id="P"/><path d="M538 24C308 24 148-78 108-271l171-41c32 123 123 178 257 178 156 0 256-77 256-169 0-77-54-128-164-154l-186-44c-203-48-300-148-300-305 0-192 176-326 414-326 230 0 351 112 402 269l-163 42c-31-80-94-158-238-158-133 0-233 69-233 162 0 83 57 129 188 160l169 40c203 48 298 149 298 302 0 196-179 339-441 339" id="Q"/><path d="M140 405l46-156c120 36 205 19 263-150l32-93L54-1118h197c107 313 237 620 324 950 87-331 219-637 326-950h196L606 167c-68 178-176 259-334 259-64 0-113-12-132-21" id="R"/><g id="c"><use transform="matrix(0.010091145833333332,0,0,0.010091145833333332,0,0)" xlink:href="#N"/><use transform="matrix(0.010091145833333332,0,0,0.010091145833333332,12.997395833333332,0)" xlink:href="#K"/><use transform="matrix(0.010091145833333332,0,0,0.010091145833333332,25.046223958333332,0)" xlink:href="#O"/><use transform="matrix(0.010091145833333332,0,0,0.010091145833333332,37.70052083333333,0)" xlink:href="#P"/><use transform="matrix(0.010091145833333332,0,0,0.010091145833333332,50.092447916666664,0)" xlink:href="#Q"/><use transform="matrix(0.010091145833333332,0,0,0.010091145833333332,61.000976562499986,0)" xlink:href="#G"/><use transform="matrix(0.010091145833333332,0,0,0.010091145833333332,66.00618489583331,0)" xlink:href="#J"/><use transform="matrix(0.010091145833333332,0,0,0.010091145833333332,72.56542968749997,0)" xlink:href="#P"/><use transform="matrix(0.010091145833333332,0,0,0.010091145833333332,84.9573567708333,0)" xlink:href="#L"/><use transform="matrix(0.010091145833333332,0,0,0.010091145833333332,93.06054687499997,0)" xlink:href="#R"/></g><path d="M180 0v-1490h510c348 0 508 209 508 474 0 266-160 477-507 477H370V0H180zm190-706h312c236 0 327-133 327-310 0-176-91-307-329-307H370v617" id="S"/><path d="M180 0v-1490h190c0 262 1 526-3 784 217-279 467-523 702-784h249L716-845 1319 0h-225L585-716 370-489V0H180" id="T"/><path d="M789 20c-398 0-667-293-667-764 0-473 273-766 655-766 315 0 558 198 612 487h-196c-61-191-204-311-415-311-262 0-471 207-471 590 0 380 208 588 482 588 249 0 420-165 425-427H828v-166h572v163c0 370-256 606-611 606" id="U"/><g id="d"><use transform="matrix(0.010091145833333332,0,0,0.010091145833333332,0,0)" xlink:href="#S"/><use transform="matrix(0.010091145833333332,0,0,0.010091145833333332,13.199218749999998,0)" xlink:href="#T"/><use transform="matrix(0.010091145833333332,0,0,0.010091145833333332,26.388346354166664,0)" xlink:href="#U"/></g><path d="M135 0v-1490h468l242 684c30 94 76 293 111 455 34-161 80-360 110-455l238-684h470V0h-307c0-447-3-765 11-1227-122 503-246 788-395 1227H826C676-435 552-717 427-1215c15 453 11 775 11 1215H135" id="V"/><path d="M440 22C227 22 68-92 68-313c0-250 202-322 422-343 195-21 271-24 271-105 0-95-63-149-175-149-116 0-187 57-211 129l-275-46c57-194 237-305 487-305 240 0 474 108 474 379V0H777v-155h-10C713-51 605 22 440 22zm85-211c140 0 238-93 238-211v-121c-37 26-156 42-222 51-111 16-185 59-185 149 0 87 70 132 169 132" id="W"/><path d="M128 0v-1118h300V0H128zm150-1264c-91 0-165-68-165-154 0-85 74-154 165-154 90 0 165 69 165 154 0 86-75 154-165 154" id="X"/><path d="M428-647V0H128v-1118h283l4 231c63-156 176-245 348-245 232 0 384 159 384 421V0H847v-659c0-139-76-222-202-222-128 0-217 86-217 234" id="Y"/><g id="e"><use transform="matrix(0.0087890625,0,0,0.0087890625,0,0)" xlink:href="#V"/><use transform="matrix(0.0087890625,0,0,0.0087890625,16.76953125,0)" xlink:href="#W"/><use transform="matrix(0.0087890625,0,0,0.0087890625,27.2197265625,0)" xlink:href="#X"/><use transform="matrix(0.0087890625,0,0,0.0087890625,32.09765625,0)" xlink:href="#Y"/></g><path d="M681 22C323 22 94-145 85-462h297c10 151 131 226 296 226 163 0 271-77 271-190 0-102-95-149-257-189l-164-41c-252-61-403-188-403-405 0-269 236-449 560-449 330 0 546 183 551 445H941c-11-119-106-188-259-188-156 0-244 72-244 172-3 156 226 185 373 221 250 61 445 186 445 436 0 271-213 446-575 446" id="Z"/><path d="M628 22C291 22 81-210 81-554c0-346 210-578 547-578 265 0 455 142 497 372l-279 52c-25-116-99-188-215-188-160 0-244 139-244 341 0 200 84 341 244 341 116 0 193-74 217-195l279 51C1085-123 896 22 628 22" id="aa"/><path d="M128 0v-1118h290v195h12c54-169 184-238 367-200v268c-27-8-86-15-130-15-138 0-239 95-239 234V0H128" id="ab"/><path d="M128 418v-1536h295v188h14c41-89 129-202 319-202 248 0 453 193 453 575 0 372-197 576-455 576-183 0-275-108-317-198h-9v597H128zm534-640c156 0 240-139 240-336 0-196-83-334-240-334-154 0-241 131-241 334 0 202 88 336 241 336" id="ac"/><path d="M633 22C291 22 81-200 81-553c0-345 210-579 537-579 292 0 525 185 525 567v84H378c7 183 109 277 260 277 105 0 184-46 216-132l272 51C1071-99 893 22 633 22zM380-669h474c-15-146-94-237-233-237-143 0-229 99-241 237" id="ad"/><g id="f"><use transform="matrix(0.0087890625,0,0,0.0087890625,0,0)" xlink:href="#Z"/><use transform="matrix(0.0087890625,0,0,0.0087890625,11.7861328125,0)" xlink:href="#aa"/><use transform="matrix(0.0087890625,0,0,0.0087890625,22.376953125,0)" xlink:href="#ab"/><use transform="matrix(0.0087890625,0,0,0.0087890625,29.4609375,0)" xlink:href="#W"/><use transform="matrix(0.0087890625,0,0,0.0087890625,39.9111328125,0)" xlink:href="#ac"/><use transform="matrix(0.0087890625,0,0,0.0087890625,51.2578125,0)" xlink:href="#ad"/><use transform="matrix(0.0087890625,0,0,0.0087890625,61.98046875,0)" xlink:href="#ab"/></g><path d="M440-1490V0H135v-1490h305" id="ae"/><path d="M537 19C279 19 81-185 81-557c0-382 206-575 454-575 190 0 278 113 318 202h10v-560h300V0H868v-179h-15C812-89 719 19 537 19zm92-241c153 0 240-134 240-336 0-203-86-334-240-334-158 0-240 138-240 334 0 197 84 336 240 336" id="af"/><path d="M42 0l360-574-338-544h324c72 124 151 261 209 394 58-134 140-271 215-394h318L785-570 1146 0H824c-79-136-169-280-234-425C528-278 439-134 360 0H42" id="ag"/><g id="g"><use transform="matrix(0.0087890625,0,0,0.0087890625,0,0)" xlink:href="#ae"/><use transform="matrix(0.0087890625,0,0,0.0087890625,5.0537109375,0)" xlink:href="#Y"/><use transform="matrix(0.0087890625,0,0,0.0087890625,16.259765625,0)" xlink:href="#af"/><use transform="matrix(0.0087890625,0,0,0.0087890625,27.6064453125,0)" xlink:href="#ad"/><use transform="matrix(0.0087890625,0,0,0.0087890625,37.96875,0)" xlink:href="#ag"/><use transform="matrix(0.0087890625,0,0,0.0087890625,48.0498046875,0)" xlink:href="#ad"/><use transform="matrix(0.0087890625,0,0,0.0087890625,58.7724609375,0)" xlink:href="#ab"/></g><path d="M428-647V0H128v-1490h294v586c65-146 175-228 341-228 232 0 385 159 385 421V0H847v-659c0-139-76-222-202-222-128 0-217 86-217 234" id="ah"/><g id="h"><use transform="matrix(0.0087890625,0,0,0.0087890625,0,0)" xlink:href="#Z"/><use transform="matrix(0.0087890625,0,0,0.0087890625,11.7861328125,0)" xlink:href="#ad"/><use transform="matrix(0.0087890625,0,0,0.0087890625,22.6845703125,0)" xlink:href="#W"/><use transform="matrix(0.0087890625,0,0,0.0087890625,33.134765625,0)" xlink:href="#ab"/><use transform="matrix(0.0087890625,0,0,0.0087890625,40.025390625,0)" xlink:href="#aa"/><use transform="matrix(0.0087890625,0,0,0.0087890625,50.6162109375,0)" xlink:href="#ah"/><use transform="matrix(0.0087890625,0,0,0.0087890625,61.822265625,0)" xlink:href="#ad"/><use transform="matrix(0.0087890625,0,0,0.0087890625,72.544921875,0)" xlink:href="#ab"/></g><path d="M135 0v-1490h581c339 0 533 192 533 485 0 204-94 351-264 424L1302 0H964L680-532H440V0H135zm305-779h220c186 0 274-77 274-226 0-150-88-233-275-233H440v459" id="ai"/><path d="M628 22C291 22 81-210 81-554c0-346 210-578 547-578 336 0 547 232 547 578 0 344-211 576-547 576zm0-236c160 0 242-146 242-341 0-197-82-341-242-341S387-753 387-555c0 195 81 341 241 341" id="aj"/><path d="M572 22C302 22 117-98 78-306l279-48c29 105 101 156 224 156 114 0 185-48 185-115 0-118-228-130-337-155-215-49-322-150-322-317 0-215 187-347 470-347 265 0 424 116 466 298l-266 47c-24-76-87-130-196-130-98 0-174 46-174 113 0 56 38 95 144 117l201 40c216 44 320 143 320 302 0 220-207 367-500 367" id="ak"/><path d="M683-1118v229H474v562c0 71 29 104 102 104 23 0 73-7 95-13l43 225C647 9 580 16 520 16 296 16 174-96 174-301v-588H20v-229h154v-266h300v266h209" id="al"/><path d="M120 396l69-226c123 42 245 23 254-107l8-60L31-1118h319c87 288 199 559 259 872 72-308 185-583 277-872h315L726 132c-68 181-186 294-410 294-79 0-153-13-196-30" id="am"/><g id="i"><use transform="matrix(0.0087890625,0,0,0.0087890625,0,0)" xlink:href="#ai"/><use transform="matrix(0.0087890625,0,0,0.0087890625,11.6015625,0)" xlink:href="#ad"/><use transform="matrix(0.0087890625,0,0,0.0087890625,22.32421875,0)" xlink:href="#ac"/><use transform="matrix(0.0087890625,0,0,0.0087890625,33.6708984375,0)" xlink:href="#aj"/><use transform="matrix(0.0087890625,0,0,0.0087890625,44.7099609375,0)" xlink:href="#ak"/><use transform="matrix(0.0087890625,0,0,0.0087890625,54.791015625,0)" xlink:href="#X"/><use transform="matrix(0.0087890625,0,0,0.0087890625,59.6689453125,0)" xlink:href="#al"/><use transform="matrix(0.0087890625,0,0,0.0087890625,66.0849609375,0)" xlink:href="#aj"/><use transform="matrix(0.0087890625,0,0,0.0087890625,77.1240234375,0)" xlink:href="#ab"/><use transform="matrix(0.0087890625,0,0,0.0087890625,84.7353515625,0)" xlink:href="#am"/></g><path fill="#fff" d="M135 0v-1490h305v1237h643V0H135" id="an"/><path fill="#fff" d="M628 22C291 22 81-210 81-554c0-346 210-578 547-578 336 0 547 232 547 578 0 344-211 576-547 576zm0-236c160 0 242-146 242-341 0-197-82-341-242-341S387-753 387-555c0 195 81 341 241 341" id="ao"/><path fill="#fff" d="M625 442c-280 0-454-114-503-274l258-72c28 63 97 128 243 128 153 0 246-69 246-216v-206h-23C805-108 717-16 536-16 284-16 81-191 81-561c0-378 208-571 456-571 188 0 280 113 321 202h13v-188h295V-9c0 303-226 451-541 451zm5-686c153 0 240-119 240-319 0-198-86-329-240-329-158 0-241 137-241 329 0 195 85 319 241 319" id="ap"/><path fill="#fff" d="M633 22C291 22 81-200 81-553c0-345 210-579 537-579 292 0 525 185 525 567v84H378c7 183 109 277 260 277 105 0 184-46 216-132l272 51C1071-99 893 22 633 22zM380-669h474c-15-146-94-237-233-237-143 0-229 99-241 237" id="aq"/><path fill="#fff" d="M128 0v-1118h290v195h12c54-169 184-238 367-200v268c-27-8-86-15-130-15-138 0-239 95-239 234V0H128" id="ar"/><g id="j"><use transform="matrix(0.0087890625,0,0,0.0087890625,0,0)" xlink:href="#an"/><use transform="matrix(0.0087890625,0,0,0.0087890625,10.177734375,0)" xlink:href="#ao"/><use transform="matrix(0.0087890625,0,0,0.0087890625,21.216796875,0)" xlink:href="#ap"/><use transform="matrix(0.0087890625,0,0,0.0087890625,32.58984375,0)" xlink:href="#ap"/><use transform="matrix(0.0087890625,0,0,0.0087890625,43.962890625,0)" xlink:href="#aq"/><use transform="matrix(0.0087890625,0,0,0.0087890625,54.685546875,0)" xlink:href="#ar"/></g><path fill="#fff" d="M169-607c0-330 107-732 258-974h279c-145 311-231 674-231 974 0 262 67 512 231 886H427C258-1 169-307 169-607" id="as"/><path fill="#fff" d="M49 0l509-1490h400L1480 0h-339l-115-346H497L386 0H49zm524-585h374c-75-213-124-402-192-666-66 268-110 453-182 666" id="at"/><path fill="#fff" d="M428-1490V0H128v-1490h300" id="au"/><g id="k"><use transform="matrix(0.0087890625,0,0,0.0087890625,0,0)" xlink:href="#as"/><use transform="matrix(0.0087890625,0,0,0.0087890625,6.78515625,0)" xlink:href="#at"/><use transform="matrix(0.0087890625,0,0,0.0087890625,20.2236328125,0)" xlink:href="#au"/><use transform="matrix(0.0087890625,0,0,0.0087890625,25.1015625,0)" xlink:href="#au"/></g><path fill="#fff" d="M128 418v-1536h295v188h14c41-89 129-202 319-202 248 0 453 193 453 575 0 372-197 576-455 576-183 0-275-108-317-198h-9v597H128zm534-640c156 0 240-139 240-336 0-196-83-334-240-334-154 0-241 131-241 334 0 202 88 336 241 336" id="av"/><path fill="#fff" d="M440 22C227 22 68-92 68-313c0-250 202-322 422-343 195-21 271-24 271-105 0-95-63-149-175-149-116 0-187 57-211 129l-275-46c57-194 237-305 487-305 240 0 474 108 474 379V0H777v-155h-10C713-51 605 22 440 22zm85-211c140 0 238-93 238-211v-121c-37 26-156 42-222 51-111 16-185 59-185 149 0 87 70 132 169 132" id="aw"/><path fill="#fff" d="M628 22C291 22 81-210 81-554c0-346 210-578 547-578 265 0 455 142 497 372l-279 52c-25-116-99-188-215-188-160 0-244 139-244 341 0 200 84 341 244 341 116 0 193-74 217-195l279 51C1085-123 896 22 628 22" id="ax"/><path fill="#fff" d="M128 0v-1490h300v802h17l366-430h347L740-633 1179 0H826L514-456l-86 97V0H128" id="ay"/><path fill="#fff" d="M572 22C302 22 117-98 78-306l279-48c29 105 101 156 224 156 114 0 185-48 185-115 0-118-228-130-337-155-215-49-322-150-322-317 0-215 187-347 470-347 265 0 424 116 466 298l-266 47c-24-76-87-130-196-130-98 0-174 46-174 113 0 56 38 95 144 117l201 40c216 44 320 143 320 302 0 220-207 367-500 367" id="az"/><g id="l"><use transform="matrix(0.0087890625,0,0,0.0087890625,0,0)" xlink:href="#av"/><use transform="matrix(0.0087890625,0,0,0.0087890625,11.5224609375,0)" xlink:href="#aw"/><use transform="matrix(0.0087890625,0,0,0.0087890625,21.97265625,0)" xlink:href="#ax"/><use transform="matrix(0.0087890625,0,0,0.0087890625,32.5634765625,0)" xlink:href="#ay"/><use transform="matrix(0.0087890625,0,0,0.0087890625,43.0048828125,0)" xlink:href="#aw"/><use transform="matrix(0.0087890625,0,0,0.0087890625,53.455078125,0)" xlink:href="#ap"/><use transform="matrix(0.0087890625,0,0,0.0087890625,64.828125,0)" xlink:href="#aq"/><use transform="matrix(0.0087890625,0,0,0.0087890625,75.55078125,0)" xlink:href="#az"/></g><path fill="#fff" d="M128 0v-1118h300V0H128zm150-1264c-91 0-165-68-165-154 0-85 74-154 165-154 90 0 165 69 165 154 0 86-75 154-165 154" id="aA"/><path fill="#fff" d="M128 0v-1118h278l12 217c60-163 185-234 319-234 143 0 236 81 288 251 63-172 205-251 359-251 205 0 357 138 357 381V0h-301v-697c0-126-76-187-177-187-114 0-184 79-184 196V0H789v-705c0-109-72-179-174-179-106 0-187 74-187 208V0H128" id="aB"/><path fill="#fff" d="M683-1118v229H474v562c0 71 29 104 102 104 23 0 73-7 95-13l43 225C647 9 580 16 520 16 296 16 174-96 174-301v-588H20v-229h154v-266h300v266h209" id="aC"/><g id="m"><use transform="matrix(0.0087890625,0,0,0.0087890625,0,0)" xlink:href="#aA"/><use transform="matrix(0.0087890625,0,0,0.0087890625,4.8779296875,0)" xlink:href="#aB"/><use transform="matrix(0.0087890625,0,0,0.0087890625,21.3046875,0)" xlink:href="#av"/><use transform="matrix(0.0087890625,0,0,0.0087890625,32.6513671875,0)" xlink:href="#ao"/><use transform="matrix(0.0087890625,0,0,0.0087890625,43.6904296875,0)" xlink:href="#ar"/><use transform="matrix(0.0087890625,0,0,0.0087890625,51.3720703125,0)" xlink:href="#aC"/></g><path fill="#fff" d="M67 279c166-379 230-627 230-886 0-300-86-663-230-974h278c151 241 258 644 258 974 0 302-90 608-258 886H67" id="aD"/><g id="n"><use transform="matrix(0.0087890625,0,0,0.0087890625,0,0)" xlink:href="#aA"/><use transform="matrix(0.0087890625,0,0,0.0087890625,4.8779296875,0)" xlink:href="#aC"/><use transform="matrix(0.0087890625,0,0,0.0087890625,11.4697265625,0)" xlink:href="#aD"/></g><path d="M135 0v-1490h581c339 0 533 210 533 503 0 295-197 500-540 500H440V0H135zm305-733h220c186 0 274-104 274-254s-88-251-275-251H440v505" id="aE"/><g id="o"><use transform="matrix(0.0087890625,0,0,0.0087890625,0,0)" xlink:href="#aE"/><use transform="matrix(0.0087890625,0,0,0.0087890625,11.4345703125,0)" xlink:href="#W"/><use transform="matrix(0.0087890625,0,0,0.0087890625,21.884765625,0)" xlink:href="#ab"/><use transform="matrix(0.0087890625,0,0,0.0087890625,29.21484375,0)" xlink:href="#ak"/><use transform="matrix(0.0087890625,0,0,0.0087890625,39.2958984375,0)" xlink:href="#ad"/><use transform="matrix(0.0087890625,0,0,0.0087890625,50.0185546875,0)" xlink:href="#ab"/></g><path d="M449 0L49-1490h333c89 395 194 758 253 1185 65-426 176-790 269-1185h317c93 394 201 758 268 1181 60-425 164-788 253-1181h334L1675 0h-348c-90-376-204-711-266-1118C1004-714 886-373 798 0H449" id="aF"/><path d="M128 0v-1490h300v802h17l366-430h347L740-633 1179 0H826L514-456l-86 97V0H128" id="aG"/><path d="M428-1490V0H128v-1490h300" id="aH"/><g id="p"><use transform="matrix(0.0087890625,0,0,0.0087890625,0,0)" xlink:href="#aF"/><use transform="matrix(0.0087890625,0,0,0.0087890625,17.7802734375,0)" xlink:href="#aj"/><use transform="matrix(0.0087890625,0,0,0.0087890625,28.8193359375,0)" xlink:href="#ab"/><use transform="matrix(0.0087890625,0,0,0.0087890625,36.4306640625,0)" xlink:href="#aG"/><use transform="matrix(0.0087890625,0,0,0.0087890625,46.4677734375,0)" xlink:href="#ad"/><use transform="matrix(0.0087890625,0,0,0.0087890625,57.1904296875,0)" xlink:href="#ab"/><use transform="matrix(0.0087890625,0,0,0.0087890625,64.8017578125,0)" xlink:href="#aE"/><use transform="matrix(0.0087890625,0,0,0.0087890625,76.3154296875,0)" xlink:href="#aj"/><use transform="matrix(0.0087890625,0,0,0.0087890625,87.3544921875,0)" xlink:href="#aj"/><use transform="matrix(0.0087890625,0,0,0.0087890625,98.3935546875,0)" xlink:href="#aH"/></g><path d="M524-1490L277 0H87l247-1490h190" id="aI"/><path d="M356-664L245 0H65l186-1118h173l-32 197c96-152 219-211 366-211 232 0 366 145 319 428L960 0H779l117-701c29-174-48-269-198-269-165 0-310 115-342 306" id="aJ"/><path d="M691-1118l-25 154H437L325-290c-17 103 16 144 108 144 23 0 63-6 94-12L538-6c-36 12-87 20-136 20-196 0-290-109-260-290l114-688H88l25-154h169l44-266h180l-44 266h229" id="aK"/><path d="M535 24C259 24 94-144 94-427c0-392 272-715 610-715 216 0 356 119 356 305 0 244-237 344-790 350-18 199 49 349 276 352 142 0 260-66 317-173l167 47C947-85 756 24 535 24zM294-623c447-4 586-57 586-218 0-85-78-141-194-141-220 0-342 177-392 359" id="aL"/><path d="M66 0l185-1118h174l-28 172h12c78-136 219-209 411-185l-30 181c-211-47-398 67-428 250L246 0H66" id="aM"/><path d="M780-1118l-24 146H497L317 116C281 334 148 448-56 448c-43 0-82-5-117-17l45-161c143 34 239 0 264-153L316-972H89l24-146h227l13-77c43-287 254-417 541-345l-50 154c-23-5-81-8-121-8-107 0-167 63-189 196l-13 80h259" id="aN"/><path d="M481 24C202 24 45-202 104-557s293-575 571-575c216 0 263 132 291 193h15l29-179h181L1006 0H831l28-173h-21C788-107 693 24 481 24zm56-161c204 0 342-174 383-422s-41-412-245-412c-215 0-350 183-388 412-39 235 39 422 250 422" id="aO"/><path d="M528 24C258 24 94-156 94-433c0-354 228-699 603-699 222 0 381 120 410 314l-176 39c-14-114-95-192-238-192-272 0-419 288-419 536 0 167 76 298 258 298 155 0 277-90 329-211l166 58C935-93 745 24 528 24" id="aP"/><g id="q"><use transform="matrix(0.0087890625,0,0,0.0087890625,0,0)" xlink:href="#aI"/><use transform="matrix(0.0087890625,0,0,0.0087890625,4.833984375,0)" xlink:href="#aJ"/><use transform="matrix(0.0087890625,0,0,0.0087890625,15.4775390625,0)" xlink:href="#aK"/><use transform="matrix(0.0087890625,0,0,0.0087890625,21.2080078125,0)" xlink:href="#aL"/><use transform="matrix(0.0087890625,0,0,0.0087890625,31.5703125,0)" xlink:href="#aM"/><use transform="matrix(0.0087890625,0,0,0.0087890625,38.63671875,0)" xlink:href="#aN"/><use transform="matrix(0.0087890625,0,0,0.0087890625,44.82421875,0)" xlink:href="#aO"/><use transform="matrix(0.0087890625,0,0,0.0087890625,55.8720703125,0)" xlink:href="#aP"/><use transform="matrix(0.0087890625,0,0,0.0087890625,66.1640625,0)" xlink:href="#aL"/></g><path d="M226-1323l28-167h1126l-28 167H885L666 0H476l219-1323H226" id="aQ"/><path d="M-28 0l489-573-281-545h202c65 135 144 295 195 434 91-140 226-300 336-434h214L662-564 960 0H756c-70-143-156-309-211-458C447-309 301-142 185 0H-28" id="aR"/><g id="r"><use transform="matrix(0.0087890625,0,0,0.0087890625,0,0)" xlink:href="#aQ"/><use transform="matrix(0.0087890625,0,0,0.0087890625,10.23046875,0)" xlink:href="#aL"/><use transform="matrix(0.0087890625,0,0,0.0087890625,20.1884765625,0)" xlink:href="#aR"/><use transform="matrix(0.0087890625,0,0,0.0087890625,30.3662109375,0)" xlink:href="#aK"/></g><path d="M87 0l247-1490h190L417-846h782l107-644h190L1249 0h-190l113-678H389L277 0H87" id="aS"/><path d="M492 24C248 24 94-147 94-425c0-352 212-707 569-707 222 0 274 136 303 198h12l92-556h181L1004 0H829l30-173h-19C792-103 700 24 492 24zm32-161c268 0 407-295 407-549 0-175-80-285-247-285-266 0-408 283-408 536 0 174 79 298 248 298" id="aT"/><path d="M492-1490L245 0H65l247-1490h180" id="aU"/><path d="M66 0l185-1118h180L246 0H66zm307-1301c-71 0-117-55-106-119s74-119 145-119c65 0 117 50 106 118s-78 120-145 120" id="aV"/><path d="M456 442C197 442 73 327 25 209l155-84c33 60 86 160 280 160 184 0 332-89 363-272l37-218-16 4C793-134 707-18 498-18 260-18 96-170 96-443c0-341 216-689 568-689 222 0 274 139 301 198l21-5 30-179h175L999 35c-48 288-275 407-543 407zm75-620c274 0 401-267 401-512 0-170-80-281-247-281-260 0-408 269-408 518 0 167 83 275 254 275" id="aW"/><g id="s"><use transform="matrix(0.0087890625,0,0,0.0087890625,0,0)" xlink:href="#aS"/><use transform="matrix(0.0087890625,0,0,0.0087890625,13.376953125,0)" xlink:href="#aO"/><use transform="matrix(0.0087890625,0,0,0.0087890625,24.4248046875,0)" xlink:href="#aJ"/><use transform="matrix(0.0087890625,0,0,0.0087890625,35.068359375,0)" xlink:href="#aT"/><use transform="matrix(0.0087890625,0,0,0.0087890625,46.0986328125,0)" xlink:href="#aU"/><use transform="matrix(0.0087890625,0,0,0.0087890625,50.4580078125,0)" xlink:href="#aV"/><use transform="matrix(0.0087890625,0,0,0.0087890625,54.826171875,0)" xlink:href="#aJ"/><use transform="matrix(0.0087890625,0,0,0.0087890625,65.4697265625,0)" xlink:href="#aW"/></g><path d="M87 0l247-1490h270l211 940c16 74 39 220 54 339 57-123 125-267 165-339l519-940h271L1577 0h-187c75-441 134-849 220-1287C1371-790 1163-459 914 0H749C649-458 553-779 473-1282 408-826 339-440 268 0H87" id="aX"/><path d="M356-670L245 0H65l247-1490h180l-94 565c97-150 219-207 362-207 226 0 365 139 318 422L960 0H779l116-695c29-174-53-275-208-275-158 0-299 107-331 300" id="aY"/><path d="M528 24C258 24 94-156 94-433c0-355 229-699 603-699 270 0 436 178 436 458 0 359-234 698-605 698zm4-161c275 0 420-287 420-533 0-170-77-301-260-301-271 0-418 288-418 536 0 168 77 298 258 298" id="aZ"/><path d="M451 24C217 22 71-78 61-277l174-29c11 123 90 172 219 172 161 0 280-83 297-181 11-71-30-117-135-143l-179-44c-195-48-280-153-253-316 31-186 223-314 455-314 233 4 337 107 366 275l-165 30c-18-80-65-152-204-152-138 0-256 75-272 174-13 77 32 118 158 149l162 40c195 48 278 154 252 313C904-113 708 24 451 24" id="ba"/><g id="t"><use transform="matrix(0.0087890625,0,0,0.0087890625,0,0)" xlink:href="#aX"/><use transform="matrix(0.0087890625,0,0,0.0087890625,16.259765625,0)" xlink:href="#aL"/><use transform="matrix(0.0087890625,0,0,0.0087890625,26.6220703125,0)" xlink:href="#aK"/><use transform="matrix(0.0087890625,0,0,0.0087890625,32.5283203125,0)" xlink:href="#aY"/><use transform="matrix(0.0087890625,0,0,0.0087890625,43.171875,0)" xlink:href="#aZ"/><use transform="matrix(0.0087890625,0,0,0.0087890625,53.9736328125,0)" xlink:href="#aT"/><use transform="matrix(0.0087890625,0,0,0.0087890625,65.00390625,0)" xlink:href="#ba"/></g><path d="M659 0H135v-1490h529c448 0 721 280 721 744 0 466-273 746-726 746zM440-263h204c287 0 437-148 437-483 0-333-150-481-435-481H440v964" id="bb"/><g id="u"><use transform="matrix(0.0087890625,0,0,0.0087890625,0,0)" xlink:href="#bb"/><use transform="matrix(0.0087890625,0,0,0.0087890625,12.9990234375,0)" xlink:href="#X"/><use transform="matrix(0.0087890625,0,0,0.0087890625,17.876953125,0)" xlink:href="#ab"/><use transform="matrix(0.0087890625,0,0,0.0087890625,24.767578125,0)" xlink:href="#ad"/><use transform="matrix(0.0087890625,0,0,0.0087890625,35.490234375,0)" xlink:href="#aa"/><use transform="matrix(0.0087890625,0,0,0.0087890625,46.0810546875,0)" xlink:href="#al"/></g><path d="M128 0v-1118h278l12 217c60-163 185-234 319-234 143 0 236 81 288 251 63-172 205-251 359-251 205 0 357 138 357 381V0h-301v-697c0-126-76-187-177-187-114 0-184 79-184 196V0H789v-705c0-109-72-179-174-179-106 0-187 74-187 208V0H128" id="bc"/><g id="v"><use transform="matrix(0.0087890625,0,0,0.0087890625,0,0)" xlink:href="#X"/><use transform="matrix(0.0087890625,0,0,0.0087890625,4.8779296875,0)" xlink:href="#bc"/><use transform="matrix(0.0087890625,0,0,0.0087890625,21.3046875,0)" xlink:href="#ac"/><use transform="matrix(0.0087890625,0,0,0.0087890625,32.6513671875,0)" xlink:href="#aj"/><use transform="matrix(0.0087890625,0,0,0.0087890625,43.6904296875,0)" xlink:href="#ab"/><use transform="matrix(0.0087890625,0,0,0.0087890625,51.3720703125,0)" xlink:href="#al"/></g><path d="M699 20c-338 0-560-226-560-600 0-472 307-930 791-930 337 0 558 226 558 599 0 313-133 619-363 790l153 261h-182L991-42C903-2 805 20 699 20zm41-486h182l114 191c172-141 268-388 268-631 0-280-157-428-381-428-373 0-600 379-600 749 0 360 278 504 578 391" id="bd"/><path d="M443 14C219 14 87-123 134-408l117-710h180L317-423c-28 171 49 275 206 275s300-105 332-300l110-670h181L961 0H787l35-209C722-47 590 14 443 14" id="be"/><path d="M-19 405l72-156c121 32 203 15 288-150l47-93-241-1124h188c55 313 135 616 167 950 142-329 324-636 483-950h205L486 167c-97 177-219 259-378 259-59 0-109-11-127-21" id="bf"/><g id="w"><use transform="matrix(0.0087890625,0,0,0.0087890625,0,0)" xlink:href="#bd"/><use transform="matrix(0.0087890625,0,0,0.0087890625,13.763671875,0)" xlink:href="#be"/><use transform="matrix(0.0087890625,0,0,0.0087890625,24.416015625,0)" xlink:href="#aL"/><use transform="matrix(0.0087890625,0,0,0.0087890625,34.7783203125,0)" xlink:href="#aM"/><use transform="matrix(0.0087890625,0,0,0.0087890625,41.8447265625,0)" xlink:href="#bf"/></g><g id="x"><use transform="matrix(0.0087890625,0,0,0.0087890625,0,0)" xlink:href="#aX"/><use transform="matrix(0.0087890625,0,0,0.0087890625,16.259765625,0)" xlink:href="#aL"/><use transform="matrix(0.0087890625,0,0,0.0087890625,26.6220703125,0)" xlink:href="#aK"/><use transform="matrix(0.0087890625,0,0,0.0087890625,32.5283203125,0)" xlink:href="#aY"/><use transform="matrix(0.0087890625,0,0,0.0087890625,43.171875,0)" xlink:href="#aZ"/><use transform="matrix(0.0087890625,0,0,0.0087890625,53.9736328125,0)" xlink:href="#aT"/></g><path fill="#3a414a" d="M763 24c-353 0-583-224-583-531v-983h190v968c0 214 149 370 393 370 243 0 391-156 391-370v-968h190v983c0 307-230 531-581 531" id="bg"/><use transform="matrix(0.0087890625,0,0,0.0087890625,0,0)" xlink:href="#bg" id="y"/><path d="M585 0H87l247-1490h460c436 0 670 281 593 744C1309-277 1035 0 585 0zM305-168h262c366 0 577-221 636-580s-82-574-426-574H496" id="bh"/><path d="M87 0l247-1490h522c311 0 433 182 398 403-29 183-158 272-300 309v10c139 9 280 144 242 380C1160-164 988 0 639 0H87zm218-167h345c236 0 346-113 367-247 23-147-78-262-262-262H390zm111-669h323c157 0 307-105 334-265 21-124-42-222-237-222H497" id="bi"/><g id="z"><use transform="matrix(0.0087890625,0,0,0.0087890625,0,0)" xlink:href="#bh"/><use transform="matrix(0.0087890625,0,0,0.0087890625,12.9814453125,0)" xlink:href="#bi"/></g><g id="A"><use transform="matrix(0.0087890625,0,0,0.0087890625,0,0)" xlink:href="#aI"/><use transform="matrix(0.0087890625,0,0,0.0087890625,4.833984375,0)" xlink:href="#aJ"/><use transform="matrix(0.0087890625,0,0,0.0087890625,15.4775390625,0)" xlink:href="#aK"/><use transform="matrix(0.0087890625,0,0,0.0087890625,21.2080078125,0)" xlink:href="#aL"/><use transform="matrix(0.0087890625,0,0,0.0087890625,31.5703125,0)" xlink:href="#aM"/><use transform="matrix(0.0087890625,0,0,0.0087890625,38.63671875,0)" xlink:href="#aN"/><use transform="matrix(0.0087890625,0,0,0.0087890625,44.82421875,0)" xlink:href="#aO"/><use transform="matrix(0.0087890625,0,0,0.0087890625,55.8720703125,0)" xlink:href="#aP"/><use transform="matrix(0.0087890625,0,0,0.0087890625,66.1640625,0)" xlink:href="#aL"/></g><path d="M699 20c-338 0-560-226-560-600 0-472 307-930 791-930 337 0 558 226 558 599 0 474-306 931-789 931zm7-176c374 0 598-379 598-750 0-280-157-428-381-428-373 0-600 379-600 749 0 280 158 429 383 429" id="bj"/><g id="B"><use transform="matrix(0.0087890625,0,0,0.0087890625,0,0)" xlink:href="#bj"/><use transform="matrix(0.0087890625,0,0,0.0087890625,13.763671875,0)" xlink:href="#aJ"/><use transform="matrix(0.0087890625,0,0,0.0087890625,24.4072265625,0)" xlink:href="#aU"/><use transform="matrix(0.0087890625,0,0,0.0087890625,28.8544921875,0)" xlink:href="#bf"/></g><path d="M698 20c-339 0-559-226-559-600 0-470 305-930 790-930 306 0 529 181 531 489h-190c-8-202-157-313-348-313-373 0-599 380-599 749 0 281 158 429 382 429 202 0 399-111 474-313h191C1267-166 997 20 698 20" id="bk"/><g id="C"><use transform="matrix(0.0087890625,0,0,0.0087890625,0,0)" xlink:href="#bk"/><use transform="matrix(0.0087890625,0,0,0.0087890625,13.1396484375,0)" xlink:href="#aZ"/><use transform="matrix(0.0087890625,0,0,0.0087890625,23.94140625,0)" xlink:href="#be"/><use transform="matrix(0.0087890625,0,0,0.0087890625,34.59375,0)" xlink:href="#aJ"/><use transform="matrix(0.0087890625,0,0,0.0087890625,45.2373046875,0)" xlink:href="#aK"/></g><path d="M65 0l247-1490h180L349-625h22l559-493h223L606-638 1003 0H772L449-523 313-412 245 0H65" id="bl"/><g id="D"><use transform="matrix(0.0087890625,0,0,0.0087890625,0,0)" xlink:href="#bk"/><use transform="matrix(0.0087890625,0,0,0.0087890625,13.1396484375,0)" xlink:href="#aY"/><use transform="matrix(0.0087890625,0,0,0.0087890625,23.783203125,0)" xlink:href="#aL"/><use transform="matrix(0.0087890625,0,0,0.0087890625,34.1455078125,0)" xlink:href="#aP"/><use transform="matrix(0.0087890625,0,0,0.0087890625,44.4375,0)" xlink:href="#bl"/><use transform="matrix(0.0087890625,0,0,0.0087890625,54.3251953125,0)" xlink:href="#aV"/><use transform="matrix(0.0087890625,0,0,0.0087890625,58.693359375,0)" xlink:href="#aJ"/><use transform="matrix(0.0087890625,0,0,0.0087890625,69.3369140625,0)" xlink:href="#aW"/></g></defs></g></svg>